<svg width="20" height="20" fill="none" xmlns="http://www.w3.org/2000/svg"><path d="M17.917 3.333H16.11v1.112h1.667v12.222H2.222V4.445H3.89V3.333H2.083a.989.989 0 00-.972 1.006v12.433a.989.989 0 00.972 1.006h15.834a.987.987 0 00.972-1.006V4.34a.988.988 0 00-.972-1.006z" fill="#7C6A6D"/><path d="M4.444 7.778h1.112v1.11H4.444v-1.11zm3.334 0h1.11v1.11h-1.11v-1.11zm3.333 0h1.111v1.11h-1.11v-1.11zm3.333 0h1.112v1.11h-1.111v-1.11zm-10 2.778h1.112v1.11H4.444v-1.11zm3.334 0h1.11v1.11h-1.11v-1.11zm3.333 0h1.111v1.11h-1.11v-1.11zm3.333 0h1.112v1.11h-1.111v-1.11zm-10 2.778h1.112v1.11H4.444v-1.11zm3.334 0h1.11v1.11h-1.11v-1.11zm3.333 0h1.111v1.11h-1.11v-1.11zm3.333 0h1.112v1.11h-1.111v-1.11zM5.556 5.556A.556.556 0 006.11 5V1.667a.556.556 0 10-1.111 0V5a.556.556 0 00.556.556zm8.888 0A.556.556 0 0015 5V1.667a.555.555 0 10-1.111 0V5a.555.555 0 00.556.556zM7.222 3.333h5.556v1.112H7.222V3.333z" fill="#7C6A6D"/></svg>