<svg width="20" height="20" fill="none" xmlns="http://www.w3.org/2000/svg"><path d="M12 16.111a.555.555 0 00-.556-.555H8.111a.555.555 0 100 1.11h3.333a.556.556 0 00.556-.555zm.522-2.777H9.19a.555.555 0 100 1.11h3.333a.555.555 0 100-1.11zm-.3 4.444H8.89a.556.556 0 000 1.11h3.333a.555.555 0 100-1.11zm5.945 0h-3.89a.556.556 0 000 1.11h3.89a.555.555 0 100-1.11zm.555-2.222h-3.889a.555.555 0 100 1.11h3.89a.556.556 0 000-1.11z" fill="#7C6A6D"/><path d="M18.744 14.445a15.554 15.554 0 00-1.566-5.623 11.244 11.244 0 00-3.511-3.983L15 1.9a.556.556 0 00-.039-.555.555.555 0 00-.444-.234H5.444a.556.556 0 00-.505.79L6.3 4.85a11.294 11.294 0 00-3.489 3.971c-1.194 2.223-1.567 4.94-1.667 6.823A2 2 0 001.7 17.15a2.105 2.105 0 001.522.595h3.445v-1.078h-3.49a.934.934 0 01-.869-.604.9.9 0 01-.052-.368c.077-1.45.383-4.211 1.533-6.361a10 10 0 013.478-3.778h.555c-.376.52-.723 1.062-1.039 1.622a12.654 12.654 0 00-.816 1.856l.76.51c.226-.663.502-1.307.829-1.927.4-.72.855-1.41 1.36-2.061h.556c.373.89.636 1.823.784 2.778.12.708.18 1.425.177 2.144l.878-.617a13.392 13.392 0 00-.178-1.666 13.78 13.78 0 00-.71-2.64h.433l.505-1.11H7.34L6.31 2.222h7.339l-1.389 3.04c.238.127.467.272.683.433a10.35 10.35 0 013.256 3.65c.78 1.6 1.263 3.327 1.428 5.1h1.116z" fill="#7C6A6D"/></svg>