<svg width="40" height="40" fill="none" xmlns="http://www.w3.org/2000/svg"><g clip-path="url(#clip0)" fill-rule="evenodd" clip-rule="evenodd" fill="#917A7E"><path d="M19.809 37.5a17.249 17.249 0 01-12.256-5.126A17.586 17.586 0 012.476 20c0-4.641 1.826-9.092 5.077-12.374A17.249 17.249 0 0119.809 2.5c4.596 0 9.005 1.844 12.256 5.126A17.586 17.586 0 0137.14 20c0 4.641-1.826 9.093-5.076 12.374A17.249 17.249 0 0119.809 37.5zm0 2.5a19.713 19.713 0 01-14.007-5.858A20.098 20.098 0 010 20 20.098 20.098 0 015.802 5.858 19.713 19.713 0 0119.809 0a19.713 19.713 0 0114.006 5.858A20.099 20.099 0 0139.617 20a20.098 20.098 0 01-5.802 14.142A19.713 19.713 0 0119.81 40z"/><path d="M20.685 28.385a1.25 1.25 0 00.364-.885 1.261 1.261 0 00-.364-.885L14.131 20l6.554-6.615a1.253 1.253 0 00.363-.885 1.262 1.262 0 00-.363-.885 1.24 1.24 0 00-.876-.367 1.23 1.23 0 00-.877.367l-7.428 7.5a1.251 1.251 0 00-.364.885 1.261 1.261 0 00.364.885l7.428 7.5a1.238 1.238 0 00.877.367 1.228 1.228 0 00.876-.367z"/><path d="M28.475 20c0-.331-.13-.65-.363-.884a1.232 1.232 0 00-.875-.366h-12.38c-.329 0-.644.132-.876.366a1.256 1.256 0 000 1.768c.232.234.547.366.875.366h12.38c.33 0 .644-.132.876-.366a1.26 1.26 0 00.363-.884z"/></g><defs><clipPath id="clip0"><path fill="#fff" transform="matrix(-1 0 0 1 39.617 0)" d="M0 0h39.617v40H0z"/></clipPath></defs></svg>