<svg width="40" height="40" fill="none" xmlns="http://www.w3.org/2000/svg"><g clip-path="url(#clip0)" fill-rule="evenodd" clip-rule="evenodd" fill="#917A7E"><path d="M20.191 37.5c4.597 0 9.006-1.844 12.256-5.126A17.586 17.586 0 0037.524 20c0-4.641-1.826-9.092-5.077-12.374A17.249 17.249 0 0020.191 2.5 17.249 17.249 0 007.935 7.626 17.586 17.586 0 002.86 20c0 4.641 1.826 9.093 5.076 12.374A17.249 17.249 0 0020.191 37.5zm0 2.5a19.713 19.713 0 0014.007-5.858A20.098 20.098 0 0040 20a20.098 20.098 0 00-5.802-14.142A19.713 19.713 0 0020.191 0 19.713 19.713 0 006.185 5.858 20.098 20.098 0 00.383 20a20.098 20.098 0 005.802 14.142A19.713 19.713 0 0020.19 40z"/><path d="M19.315 28.385a1.25 1.25 0 01-.364-.885 1.261 1.261 0 01.364-.885L25.869 20l-6.554-6.615a1.253 1.253 0 01-.363-.885 1.262 1.262 0 01.363-.885 1.24 1.24 0 01.876-.367 1.23 1.23 0 01.877.367l7.428 7.5a1.251 1.251 0 01.364.885 1.261 1.261 0 01-.364.885l-7.428 7.5a1.238 1.238 0 01-.877.367 1.228 1.228 0 01-.876-.367z"/><path d="M11.525 20c0-.331.13-.65.363-.884.232-.234.547-.366.875-.366h12.38c.329 0 .644.132.876.366a1.256 1.256 0 010 1.768 1.232 1.232 0 01-.875.366h-12.38c-.33 0-.644-.132-.876-.366a1.256 1.256 0 01-.363-.884z"/></g><defs><clipPath id="clip0"><path fill="#fff" transform="translate(.383)" d="M0 0h39.617v40H0z"/></clipPath></defs></svg>